<svg xmlns="http://www.w3.org/2000/svg" viewBox="0 0 1000 1000">
<path d="M214 364 300 92l178 222c15-3 29-4 43-4s29 1 44 4L700 92l88 272c45 72 68 159 68 260 0 205-145 308-336 308S184 829 184 624c0-101 24-188 70-260Z" fill="#D97A72"/>
<path d="M300 92 478 314c-77 17-144 58-197 121Z" fill="#F4B3A8"/>
<path d="M700 92 565 314c77 17 144 58 197 121Z" fill="#F4B3A8"/>
<path d="M288 435c82-72 163-105 232-105s150 33 232 105l-74 287c-38 125-111 186-158 186s-120-61-158-186Z" fill="#F6D8C3"/>
<path d="M217 600c58 28 113 74 156 133l-44 79c-83-30-139-97-139-188 0-8 0-16 1-24Z" fill="#B85557"/>
<path d="M809 600c-58 28-113 74-156 133l44 79c83-30 139-97 139-188 0-8 0-16-1-24Z" fill="#B85557"/>
</svg>