<svg xmlns="http://www.w3.org/2000/svg" viewBox="0 0 1000 1000" role="img" aria-label="Daisy Cow">
<g stroke="#3A302C" stroke-width="24" stroke-linecap="round" stroke-linejoin="round">
  <g stroke="none"><ellipse cx="230" cy="365" rx="145" ry="82" fill="#F8F0DD"/><ellipse cx="770" cy="365" rx="145" ry="82" fill="#F8F0DD"/><path d="M360 310Q330 145 405 105Q455 205 430 330" fill="#2E3034"/><path d="M640 310Q670 145 595 105Q545 205 570 330" fill="#2E3034"/></g>
  <g fill="#F8F0DD"><ellipse cx="500" cy="535" rx="260" ry="365"/></g>
  <g stroke="none"><path d="M300 340Q430 265 485 425Q390 530 270 495Z" fill="#2E3034"/><path d="M600 680Q705 610 750 755Q680 835 575 785Z" fill="#2E3034"/></g>
  <g stroke="none"><ellipse cx="385" cy="535" rx="42" ry="56" fill="#2F2927"/><ellipse cx="615" cy="535" rx="42" ry="56" fill="#2F2927"/><circle cx="370" cy="517" r="14" fill="#fff"/><circle cx="600" cy="517" r="14" fill="#fff"/><ellipse cx="300" cy="650" rx="75" ry="35" fill="#EF8F9F" opacity=".38"/><ellipse cx="700" cy="650" rx="75" ry="35" fill="#EF8F9F" opacity=".38"/><ellipse cx="500" cy="680" rx="142" ry="105" fill="#2E3034" opacity=".9"/><path d="M455 640Q500 605 545 640Q535 690 500 700Q465 690 455 640Z" fill="#4A3632"/><path d="M500 700Q500 760 440 755M500 700Q500 760 560 755" fill="none" stroke="#4A3632" stroke-width="18" stroke-linecap="round"/></g>
</g>
</svg>