<svg xmlns="http://www.w3.org/2000/svg" viewBox="0 0 1000 1000" role="img" aria-label="Twig Owl">
<g stroke="#3A302C" stroke-width="24" stroke-linecap="round" stroke-linejoin="round">
  <g stroke="none"><polygon points="275,420 225,135 445,340" fill="#A06D48"/><polygon points="725,420 775,135 555,340" fill="#A06D48"/></g>
  <g fill="#A06D48"><ellipse cx="500" cy="535" rx="330" ry="315"/></g>
  <g stroke="none"><circle cx="385" cy="535" r="145" fill="#F1CF82"/><circle cx="615" cy="535" r="145" fill="#F1CF82"/></g>
  <g stroke="none"><ellipse cx="385" cy="535" rx="72" ry="86" fill="#2F2927"/><ellipse cx="615" cy="535" rx="72" ry="86" fill="#2F2927"/><circle cx="370" cy="517" r="14" fill="#fff"/><circle cx="600" cy="517" r="14" fill="#fff"/><ellipse cx="300" cy="650" rx="75" ry="35" fill="#EF8F9F" opacity=".38"/><ellipse cx="700" cy="650" rx="75" ry="35" fill="#EF8F9F" opacity=".38"/><ellipse cx="500" cy="680" rx="142" ry="105" fill="#F1CF82" opacity=".9"/><path d="M455 640Q500 605 545 640Q535 690 500 700Q465 690 455 640Z" fill="#4A3632"/><path d="M500 700Q500 760 440 755M500 700Q500 760 560 755" fill="none" stroke="#4A3632" stroke-width="18" stroke-linecap="round"/></g>
</g>
</svg>