<svg xmlns="http://www.w3.org/2000/svg" viewBox="0 0 1000 1000" role="img" aria-label="Sundae Seal">
<g stroke="#3A302C" stroke-width="24" stroke-linecap="round" stroke-linejoin="round">
  <g stroke="none"></g>
  <g fill="#D6DDE1"><path d="M160 745C170 390 310 225 500 225C690 225 830 390 840 745C745 835 255 835 160 745Z"/></g>
  <g stroke="none"><circle cx="340" cy="360" r="22" fill="#AAB4BB"/><circle cx="430" cy="325" r="18" fill="#AAB4BB"/><circle cx="585" cy="350" r="20" fill="#AAB4BB"/></g>
  <g stroke="none"><ellipse cx="385" cy="535" rx="42" ry="56" fill="#2F2927"/><ellipse cx="615" cy="535" rx="42" ry="56" fill="#2F2927"/><circle cx="370" cy="517" r="14" fill="#fff"/><circle cx="600" cy="517" r="14" fill="#fff"/><ellipse cx="300" cy="650" rx="75" ry="35" fill="#EF8F9F" opacity=".38"/><ellipse cx="700" cy="650" rx="75" ry="35" fill="#EF8F9F" opacity=".38"/><ellipse cx="500" cy="680" rx="142" ry="105" fill="#FFFFFF" opacity=".9"/><path d="M455 640Q500 605 545 640Q535 690 500 700Q465 690 455 640Z" fill="#4A3632"/><path d="M500 700Q500 760 440 755M500 700Q500 760 560 755" fill="none" stroke="#4A3632" stroke-width="18" stroke-linecap="round"/><path d="M355 670L150 620M350 710L125 720M645 670L850 620M650 710L875 720" fill="none" stroke="#4A3632" stroke-width="12" stroke-linecap="round" opacity=".72"/></g>
</g>
</svg>